<svg width="19" height="18" viewBox="0 0 19 18" fill="none" xmlns="http://www.w3.org/2000/svg">
<g clip-path="url(#clip0_708_1026)">
<path d="M9.5 9C9.9125 9 10.2657 8.853 10.5598 8.559C10.8533 8.2655 11 7.9125 11 7.5C11 7.0875 10.8533 6.73425 10.5598 6.44025C10.2657 6.14675 9.9125 6 9.5 6C9.0875 6 8.7345 6.14675 8.441 6.44025C8.147 6.73425 8 7.0875 8 7.5C8 7.9125 8.147 8.2655 8.441 8.559C8.7345 8.853 9.0875 9 9.5 9ZM9.5 16.5C7.4875 14.7875 5.9845 13.1967 4.991 11.7277C3.997 10.2592 3.5 8.9 3.5 7.65C3.5 5.775 4.10325 4.28125 5.30975 3.16875C6.51575 2.05625 7.9125 1.5 9.5 1.5C11.0875 1.5 12.4843 2.05625 13.6903 3.16875C14.8967 4.28125 15.5 5.775 15.5 7.65C15.5 8.9 15.0033 10.2592 14.0098 11.7277C13.0157 13.1967 11.5125 14.7875 9.5 16.5Z" fill="#1D1D1D"/>
</g>
<defs>
<clipPath id="clip0_708_1026">
<rect width="18" height="18" fill="white" transform="translate(0.5)"/>
</clipPath>
</defs>
</svg>
