<svg id="Layer_1" data-name="Layer 1" xmlns="http://www.w3.org/2000/svg" xmlns:xlink="http://www.w3.org/1999/xlink" viewBox="0 0 13 13"><defs><style>.cls-1{fill:none;}.cls-2{clip-path:url(#clip-path);}.cls-3{fill:#00247d;}.cls-4{fill:#fff;}.cls-5{clip-path:url(#clip-path-2);}.cls-6{fill:#cf142b;}</style><clipPath id="clip-path"><path class="cls-1" d="M12.58,2.23a1.49,1.49,0,0,0-1-.42H1.44A1.43,1.43,0,0,0,0,3.23V9.75a1.43,1.43,0,0,0,1.42,1.44H11.56A1.43,1.43,0,0,0,13,9.77V3.25A1.45,1.45,0,0,0,12.58,2.23Z"/></clipPath><clipPath id="clip-path-2"><path class="cls-1" d="M6.5,6.5h7v4.69Zm0,0v4.69h-7Zm0,0h-7V1.81Zm0,0V1.81h7Z"/></clipPath></defs><g class="cls-2"><rect class="cls-3" x="-0.54" y="1.81" width="14.08" height="9.39"/><polygon class="cls-4" points="9.19 5.69 7.96 6.5 9.19 7.31 13.54 10.22 13.54 11.19 12.07 11.19 7.85 8.38 7.31 8.02 6.5 7.48 5.68 8.02 5.14 8.38 0.92 11.19 -0.54 11.19 -0.54 10.22 3 7.86 3.81 7.31 5.03 6.5 3.81 5.69 3 5.14 -0.54 2.78 -0.54 1.8 0.92 1.8 5.14 4.62 5.68 4.98 6.5 5.52 7.31 4.98 7.85 4.62 12.07 1.8 13.54 1.8 13.54 2.78 9.19 5.69"/><g class="cls-5"><polygon class="cls-6" points="13.22 11.67 6.5 7.19 -0.23 11.67 -0.86 10.72 5.47 6.5 -0.86 2.28 -0.23 1.33 6.5 5.81 13.22 1.33 13.86 2.28 7.53 6.5 13.86 10.72 13.22 11.67"/></g><polygon class="cls-4" points="7.85 11.19 5.14 11.19 5.14 7.86 -0.54 7.86 -0.54 5.14 5.14 5.14 5.14 1.8 7.85 1.8 7.85 5.14 13.54 5.14 13.54 7.86 7.85 7.86 7.85 11.19"/><polygon class="cls-6" points="7.31 11.19 5.68 11.19 5.68 7.31 -0.54 7.31 -0.54 5.69 5.68 5.69 5.68 1.8 7.31 1.8 7.31 5.69 13.54 5.69 13.54 7.31 7.31 7.31 7.31 11.19"/></g></svg>