<?xml version="1.0" encoding="utf-8"?>
<!-- Generator: Adobe Illustrator 26.1.0, SVG Export Plug-In . SVG Version: 6.00 Build 0)  -->
<svg version="1.1" id="Слой_1" xmlns="http://www.w3.org/2000/svg" xmlns:xlink="http://www.w3.org/1999/xlink" x="0px" y="0px"
	 viewBox="0 0 502.1 199.8" style="enable-background:new 0 0 502.1 199.8;" xml:space="preserve">
<style type="text/css">
	.st0{fill:url(#SVGID_1_);}
	.st1{fill:#31D376;}
	.st2{fill:url(#SVGID_00000039134260632050022490000009008504702395736740_);}
	.st3{fill:url(#SVGID_00000018935741584437266560000016778920474434939297_);}
	.st4{fill:url(#SVGID_00000063617390319848602910000004239797843404155547_);}
	.st5{fill:#114928;}
	.st6{fill:url(#SVGID_00000090274565393165519330000011701602875162360731_);}
	.st7{fill:url(#SVGID_00000087408580886211973960000005431708358615316108_);}
	.st8{fill:url(#SVGID_00000047019489981830110370000010530002529321309334_);}
	.st9{fill:url(#SVGID_00000075876265211030219790000001334726982497315260_);}
</style>
<g>
	
		<linearGradient id="SVGID_1_" gradientUnits="userSpaceOnUse" x1="135.1401" y1="-0.1618" x2="135.1401" y2="199.8898" gradientTransform="matrix(1 0 0 -1 0 199.8898)">
		<stop  offset="0" style="stop-color:#0B9E66"/>
		<stop  offset="0.1704" style="stop-color:#15BB7A"/>
		<stop  offset="1" style="stop-color:#31D376"/>
	</linearGradient>
	<path class="st0" d="M184.9,185.5c0-6.9-4.8-12.9-11.6-14.2c-33.6-6.4-58.9-35.9-58.9-71.3s25.4-64.9,58.9-71.3
		c6.8-1.3,11.6-7.3,11.6-14.2l0,0c0-9.2-8.4-16-17.4-14.2c-46.7,9.1-82.1,50.3-82.1,99.8s35.4,90.6,82.2,99.7
		C176.6,201.5,184.9,194.7,184.9,185.5L184.9,185.5z"/>
	<path class="st1" d="M14.5,185c6.9,0,12.9-4.8,14.2-11.6c6.4-33.6,35.9-58.9,71.3-58.9s64.9,25.4,71.3,58.9
		c1.3,6.8,7.3,11.6,14.2,11.6l0,0c9.2,0,16-8.4,14.2-17.4c-9.1-46.8-50.2-82.2-99.7-82.2S9.3,120.9,0.3,167.7
		C-1.5,176.7,5.3,185,14.5,185L14.5,185z"/>
	
		<linearGradient id="SVGID_00000109738749615124187600000008582515857948733605_" gradientUnits="userSpaceOnUse" x1="1.265144e-07" y1="134.9996" x2="199.9516" y2="134.9996" gradientTransform="matrix(1 0 0 -1 0 199.8898)">
		<stop  offset="0" style="stop-color:#45EFC7"/>
		<stop  offset="1" style="stop-color:#AEFFE8"/>
	</linearGradient>
	<path style="fill:url(#SVGID_00000109738749615124187600000008582515857948733605_);" d="M185.4,15.1c-6.9,0-12.9,4.8-14.2,11.6
		c-6.4,33.6-35.9,58.9-71.3,58.9S35.1,60.3,28.7,26.7c-1.3-6.8-7.3-11.6-14.2-11.6l0,0c-9.2,0-16,8.4-14.2,17.4
		c9.1,46.8,50.2,82.2,99.7,82.2s90.6-35.4,99.7-82.2C201.4,23.5,194.6,15.1,185.4,15.1L185.4,15.1z"/>
	
		<linearGradient id="SVGID_00000136387639426550523090000014375832596880691347_" gradientUnits="userSpaceOnUse" x1="-1.818989e-12" y1="64.6997" x2="199.9802" y2="64.6997" gradientTransform="matrix(1 0 0 -1 0 199.8898)">
		<stop  offset="0" style="stop-color:#11B77B"/>
		<stop  offset="1" style="stop-color:#31D376"/>
	</linearGradient>
	<path style="fill:url(#SVGID_00000136387639426550523090000014375832596880691347_);" d="M14.5,185c6.9,0,12.9-4.8,14.2-11.6
		c6.4-33.6,35.9-58.9,71.3-58.9s64.9,25.4,71.3,58.9c1.3,6.8,7.3,11.6,14.2,11.6l0,0c9.2,0,16-8.4,14.2-17.4
		c-9.1-46.8-50.2-82.2-99.7-82.2S9.3,120.9,0.3,167.7C-1.5,176.7,5.3,185,14.5,185L14.5,185z"/>
	
		<linearGradient id="SVGID_00000086658801593237453660000011417989102151018654_" gradientUnits="userSpaceOnUse" x1="64.7901" y1="199.7897" x2="64.7901" y2="-0.1904" gradientTransform="matrix(1 0 0 -1 0 199.8898)">
		<stop  offset="0" style="stop-color:#AEFFE8"/>
		<stop  offset="1" style="stop-color:#2BD8AA"/>
	</linearGradient>
	<path style="fill:url(#SVGID_00000086658801593237453660000011417989102151018654_);" d="M15,14.6c0,6.9,4.8,12.9,11.6,14.2
		c33.6,6.4,58.9,35.9,58.9,71.3S60.1,165,26.6,171.4c-6.8,1.3-11.6,7.3-11.6,14.2l0,0c0,9.2,8.4,16,17.4,14.2
		c46.8-9.1,82.2-50.2,82.2-99.7S79.2,9.4,32.4,0.4C23.4-1.4,15,5.4,15,14.6L15,14.6z"/>
</g>
<g>
	<path class="st5" d="M281.2,66c-0.8,0-1.4-0.3-2-0.8c-0.5-0.5-0.8-1.2-0.8-2V49.8c-1,1-2.1,1.7-3.5,2.4c-2,0.9-4.3,1.3-6.8,1.3
		c-3.2,0-5.9-0.7-8.1-2c-2.2-1.3-3.9-3.3-5-5.7c-1.1-2.5-1.7-5.4-1.7-8.8v-6.9c0-0.8,0.3-1.5,0.8-2c0.5-0.5,1.2-0.8,2-0.8
		c0.8,0,1.5,0.3,2,0.8c0.5,0.5,0.8,1.2,0.8,2v6.9c0,2.5,0.3,4.6,0.9,6.4c0.6,1.7,1.6,3.1,3,4c1.4,0.9,3.3,1.4,5.7,1.4
		c2,0,3.8-0.2,5.3-0.7c1.5-0.5,2.7-1.1,3.5-2c0.8-0.8,1.2-1.8,1.2-2.9V29.9c0-0.8,0.3-1.5,0.8-2c0.5-0.5,1.2-0.8,2-0.8
		c0.8,0,1.5,0.3,2,0.8c0.5,0.5,0.8,1.2,0.8,2v33.3c0,0.8-0.3,1.4-0.8,2C282.7,65.7,282,66,281.2,66z"/>
	<path class="st5" d="M281.2,27.4c0.8,0,1.4,0.2,1.8,0.7c0.5,0.5,0.7,1.1,0.7,1.8v33.3c0,0.7-0.2,1.3-0.7,1.8
		c-0.5,0.5-1.1,0.7-1.8,0.7c-0.7,0-1.3-0.2-1.8-0.7c-0.5-0.5-0.7-1.1-0.7-1.8v-14c0.3-0.3,0.5-0.6,0.8-0.9c1.1-1.5,1.6-3.3,1.6-5.3
		h-2.4V29.9c0-0.8,0.2-1.4,0.7-1.8C279.9,27.6,280.5,27.4,281.2,27.4 M256.1,27.4c0.8,0,1.4,0.2,1.8,0.7c0.5,0.5,0.7,1.1,0.7,1.8
		v6.9c0,2.5,0.3,4.6,0.9,6.4c0.6,1.8,1.6,3.2,3,4.1c1.4,1,3.4,1.4,5.8,1.4c2,0,3.8-0.2,5.4-0.7c1.5-0.5,2.7-1.2,3.6-2
		c0.9-0.9,1.3-1.9,1.3-3v6.3c-1,1.1-2.3,2-3.8,2.7c-2,0.9-4.2,1.3-6.8,1.3c-3.1,0-5.8-0.7-8-2c-2.2-1.3-3.8-3.2-4.9-5.7
		c-1.1-2.4-1.7-5.4-1.7-8.7v-6.9c0-0.8,0.2-1.4,0.7-1.8C254.8,27.6,255.4,27.4,256.1,27.4 M281.2,27c-0.8,0-1.5,0.3-2.1,0.8
		c-0.6,0.6-0.9,1.3-0.9,2.1V43c0,1-0.4,1.9-1.2,2.7c-0.8,0.8-2,1.5-3.5,1.9c-1.5,0.5-3.3,0.7-5.2,0.7c-2.3,0-4.2-0.5-5.6-1.4
		c-1.3-0.9-2.3-2.2-2.9-3.9c-0.6-1.7-0.9-3.8-0.9-6.3v-6.9c0-0.9-0.3-1.6-0.8-2.1c-0.6-0.6-1.3-0.8-2.1-0.8c-0.8,0-1.5,0.3-2.1,0.8
		c-0.6,0.6-0.9,1.3-0.9,2.1v6.9c0,3.4,0.6,6.4,1.7,8.9c1.1,2.5,2.9,4.5,5.1,5.8c2.2,1.4,5,2.1,8.2,2.1c2.6,0,4.9-0.5,6.9-1.3
		c1.2-0.6,2.3-1.2,3.2-2.1v13c0,0.8,0.3,1.5,0.9,2.1c0.6,0.6,1.3,0.9,2.1,0.9c0.9,0,1.6-0.3,2.1-0.9c0.5-0.6,0.8-1.3,0.8-2.1V29.9
		c0-0.9-0.3-1.6-0.8-2.1C282.8,27.2,282.1,27,281.2,27L281.2,27z M279.1,43.4h1.6c-0.1,1.7-0.6,3.3-1.6,4.7c0,0,0,0,0,0V43.4
		L279.1,43.4z"/>
</g>
<g>
	<path class="st5" d="M306.1,66.2c-2.4,0-4.6-0.6-6.5-1.8c-1.9-1.2-3.5-2.9-4.6-4.9c-1.1-2.1-1.7-4.4-1.7-7.1c0-2.6,0.6-5,1.8-7.1
		c1.2-2.1,2.9-3.8,4.9-5c2.1-1.2,4.4-1.8,7-1.8c2.6,0,4.9,0.6,7,1.8c2.1,1.2,3.7,2.9,4.9,5c1.2,2.1,1.8,4.5,1.8,7.1v11
		c0,0.8-0.3,1.4-0.8,1.9c-0.5,0.5-1.2,0.8-1.9,0.8c-0.8,0-1.4-0.3-1.9-0.8c-0.5-0.5-0.8-1.2-0.8-1.9V62c-0.8,0.9-1.7,1.7-2.7,2.3
		C310.7,65.6,308.5,66.2,306.1,66.2z M307.1,43.3c-1.6,0-3.1,0.4-4.3,1.2c-1.3,0.8-2.3,1.9-3.1,3.2c-0.8,1.4-1.1,2.9-1.1,4.6
		c0,1.7,0.4,3.2,1.1,4.6c0.7,1.4,1.8,2.4,3.1,3.2c1.3,0.8,2.8,1.2,4.3,1.2c1.6,0,3.1-0.4,4.4-1.2c1.3-0.8,2.3-1.9,3-3.2
		c0.7-1.4,1.1-2.9,1.1-4.6c0-1.7-0.4-3.3-1.1-4.6c-0.7-1.4-1.8-2.4-3-3.2C310.2,43.7,308.7,43.3,307.1,43.3z"/>
	<path class="st5" d="M307.1,38.7c2.6,0,4.9,0.6,6.9,1.8c2,1.2,3.6,2.8,4.8,4.9c1.2,2.1,1.8,4.4,1.8,7l-4.1-1.8l-0.9,5.2v5.7
		c-0.9,1.1-1.9,2-3,2.7c-1.9,1.2-4,1.8-6.4,1.8c-2.4,0-4.5-0.6-6.4-1.8c-1.9-1.2-3.4-2.8-4.5-4.9c-1.1-2-1.6-4.4-1.6-7
		c0-2.6,0.6-4.9,1.8-7c1.2-2.1,2.8-3.7,4.9-4.9C302.2,39.3,304.5,38.7,307.1,38.7 M307.1,61.5c1.7,0,3.2-0.4,4.5-1.2
		c1.3-0.8,2.3-1.9,3.1-3.3c0.8-1.4,1.1-3,1.1-4.7c0-1.8-0.4-3.4-1.1-4.7c-0.8-1.4-1.8-2.5-3.1-3.3c-1.3-0.8-2.8-1.2-4.5-1.2
		c-1.6,0-3.1,0.4-4.5,1.2c-1.3,0.8-2.4,1.9-3.1,3.3c-0.8,1.4-1.2,3-1.2,4.7c0,1.7,0.4,3.3,1.2,4.7c0.8,1.4,1.8,2.5,3.1,3.3
		C304,61.1,305.4,61.5,307.1,61.5 M320.6,52.3v11c0,0.7-0.2,1.3-0.7,1.8c-0.5,0.5-1.1,0.7-1.8,0.7c-0.7,0-1.3-0.2-1.8-0.7
		c-0.5-0.5-0.7-1.1-0.7-1.8v-1.8c0.5-0.7,1-1.4,1.5-2.2c1.1-2,1.6-4.4,1.6-7H320.6 M307.1,38.3c-2.6,0-5,0.6-7.1,1.9
		c-2.1,1.2-3.8,2.9-5,5c-1.2,2.1-1.8,4.5-1.8,7.2c0,2.6,0.6,5.1,1.7,7.2c1.1,2.1,2.7,3.8,4.6,5c2,1.2,4.2,1.9,6.7,1.9
		c2.5,0,4.7-0.6,6.7-1.9c0.9-0.6,1.7-1.2,2.4-2v0.8c0,0.8,0.3,1.5,0.8,2.1c0.6,0.6,1.3,0.8,2.1,0.8c0.8,0,1.5-0.3,2.1-0.8
		c0.6-0.6,0.8-1.3,0.8-2.1v-11v-0.4h0c-0.1-2.5-0.7-4.8-1.8-6.8c-1.2-2.1-2.9-3.8-5-5C312.1,38.9,309.7,38.3,307.1,38.3L307.1,38.3z
		 M307.1,61.1c-1.6,0-3-0.4-4.2-1.1c-1.3-0.8-2.3-1.8-3-3.1c-0.7-1.3-1.1-2.8-1.1-4.5c0-1.7,0.4-3.2,1.1-4.5c0.7-1.3,1.7-2.4,3-3.1
		c1.3-0.8,2.7-1.1,4.2-1.1c1.6,0,3,0.4,4.3,1.1c1.2,0.8,2.2,1.8,3,3.1c0.7,1.3,1.1,2.9,1.1,4.6c0,1.7-0.4,3.2-1.1,4.5
		c-0.7,1.3-1.7,2.4-3,3.1C310.1,60.7,308.7,61.1,307.1,61.1L307.1,61.1z M316,55.8l0.8-4.7l1.8,0.8h-0.4v0.4c0,2.5-0.5,4.8-1.6,6.8
		c-0.2,0.4-0.4,0.8-0.7,1.1V55.8L316,55.8z"/>
</g>
<g>
	<path class="st5" d="M342,66.2c-2.6,0-5-0.6-7.1-1.8c-2.1-1.2-3.7-2.9-4.9-4.9c-1.2-2.1-1.8-4.4-1.8-7.1c0-2.7,0.6-5.1,1.7-7.2
		c1.2-2.1,2.8-3.7,4.8-4.9c2-1.2,4.4-1.8,7-1.8c2,0,3.8,0.4,5.4,1.1c1.6,0.7,3.1,1.9,4.4,3.4c0.5,0.6,0.7,1.2,0.5,1.8
		c-0.1,0.6-0.5,1.1-1.2,1.6c-0.4,0.3-0.8,0.4-1.2,0.4c-0.2,0-0.3,0-0.5,0c-0.6-0.1-1.1-0.4-1.6-0.9c-1.6-1.7-3.5-2.5-5.9-2.5
		c-1.6,0-3.1,0.4-4.3,1.1c-1.2,0.7-2.2,1.8-2.9,3.1c-0.7,1.3-1.1,2.9-1.1,4.8c0,1.7,0.4,3.3,1.1,4.6c0.7,1.3,1.7,2.4,3,3.2
		c1.3,0.8,2.8,1.2,4.5,1.2c1.1,0,2.1-0.1,3-0.4c0.8-0.3,1.6-0.7,2.3-1.3c0.6-0.5,1.1-0.7,1.7-0.8c0.1,0,0.1,0,0.2,0
		c0.5,0,1,0.2,1.4,0.5c0.6,0.5,0.9,1.1,1,1.7c0.1,0.6-0.1,1.2-0.6,1.7C348.6,65,345.6,66.2,342,66.2z"/>
	<path class="st5" d="M341.8,38.7c1.9,0,3.7,0.4,5.3,1.1c1.6,0.7,3,1.8,4.3,3.3c0.5,0.5,0.6,1.1,0.5,1.6c-0.1,0.6-0.5,1-1.1,1.5
		c-0.3,0.2-0.7,0.4-1.1,0.4c-0.1,0-0.3,0-0.4,0c-0.6-0.1-1.1-0.4-1.5-0.9c-1.6-1.7-3.6-2.6-6-2.6c-1.7,0-3.1,0.4-4.4,1.2
		c-1.3,0.8-2.3,1.8-3,3.2c-0.7,1.4-1.1,3-1.1,4.9c0,1.8,0.4,3.3,1.1,4.7c0.7,1.4,1.8,2.5,3.1,3.3c1.3,0.8,2.8,1.2,4.6,1.2
		c1.1,0,2.2-0.1,3-0.4c0.9-0.3,1.7-0.7,2.4-1.3c0.5-0.4,1.1-0.7,1.6-0.7c0.1,0,0.1,0,0.2,0c0.5,0,0.9,0.2,1.3,0.5
		c0.6,0.5,0.9,1,0.9,1.5c0.1,0.6-0.1,1.1-0.6,1.5c-2.4,2.2-5.3,3.3-8.9,3.3c-2.6,0-5-0.6-7-1.8c-2-1.2-3.7-2.8-4.8-4.9
		c-1.2-2-1.7-4.4-1.7-7c0-2.7,0.6-5,1.7-7.1s2.7-3.7,4.7-4.8C336.9,39.3,339.2,38.7,341.8,38.7 M341.8,38.3c-2.7,0-5,0.6-7.1,1.8
		c-2.1,1.2-3.7,2.9-4.9,5c-1.2,2.1-1.8,4.6-1.8,7.3c0,2.6,0.6,5.1,1.8,7.2c1.2,2.1,2.9,3.8,5,5c2.1,1.2,4.5,1.9,7.2,1.9
		c3.6,0,6.7-1.1,9.1-3.4c0.6-0.6,0.8-1.2,0.7-1.9c-0.1-0.7-0.4-1.3-1.1-1.8c-0.4-0.4-1-0.6-1.5-0.6c-0.1,0-0.2,0-0.2,0
		c-0.6,0.1-1.3,0.3-1.8,0.8c-0.7,0.6-1.4,1-2.3,1.2c-0.8,0.3-1.8,0.4-2.9,0.4c-1.7,0-3.1-0.4-4.4-1.1c-1.2-0.8-2.2-1.8-2.9-3.1
		c-0.7-1.3-1.1-2.8-1.1-4.5c0-1.8,0.3-3.4,1-4.7c0.7-1.3,1.6-2.3,2.8-3.1c1.2-0.7,2.6-1.1,4.2-1.1c2.3,0,4.2,0.8,5.7,2.4
		c0.5,0.5,1.1,0.8,1.7,1c0.2,0,0.3,0.1,0.5,0.1c0.5,0,0.9-0.1,1.3-0.4c0.7-0.5,1.1-1.1,1.2-1.7c0.2-0.7,0-1.4-0.6-2
		c-1.3-1.5-2.8-2.7-4.5-3.4C345.6,38.7,343.8,38.3,341.8,38.3L341.8,38.3z"/>
</g>
<g>
	<path class="st5" d="M281.2,117.7c-0.8,0-1.4-0.3-2-0.8c-0.5-0.5-0.8-1.2-0.8-2v-13.5c-1,1-2.1,1.7-3.5,2.4c-2,0.9-4.3,1.3-6.8,1.3
		c-3.2,0-5.9-0.7-8.1-2c-2.2-1.3-3.9-3.3-5-5.7c-1.1-2.5-1.7-5.4-1.7-8.8v-6.9c0-0.8,0.3-1.5,0.8-2c0.5-0.5,1.2-0.8,2-0.8
		c0.8,0,1.5,0.3,2,0.8c0.5,0.5,0.8,1.2,0.8,2v6.9c0,2.5,0.3,4.6,0.9,6.4c0.6,1.7,1.6,3.1,3,4c1.4,0.9,3.3,1.4,5.7,1.4
		c2,0,3.8-0.2,5.3-0.7c1.5-0.5,2.7-1.1,3.5-2c0.8-0.8,1.2-1.8,1.2-2.9V81.6c0-0.8,0.3-1.5,0.8-2c0.5-0.5,1.2-0.8,2-0.8
		c0.8,0,1.5,0.3,2,0.8c0.5,0.5,0.8,1.2,0.8,2v33.3c0,0.8-0.3,1.4-0.8,2C282.7,117.4,282,117.7,281.2,117.7z"/>
	<path class="st5" d="M281.2,79.1c0.8,0,1.4,0.2,1.8,0.7c0.5,0.5,0.7,1.1,0.7,1.8v33.3c0,0.7-0.2,1.3-0.7,1.8
		c-0.5,0.5-1.1,0.7-1.8,0.7c-0.7,0-1.3-0.2-1.8-0.7c-0.5-0.5-0.7-1.1-0.7-1.8v-14c0.3-0.3,0.5-0.6,0.8-0.9c1.1-1.5,1.6-3.3,1.6-5.3
		h-2.4V81.6c0-0.8,0.2-1.4,0.7-1.8C279.9,79.3,280.5,79.1,281.2,79.1 M256.1,79.1c0.8,0,1.4,0.2,1.8,0.7c0.5,0.5,0.7,1.1,0.7,1.8
		v6.9c0,2.5,0.3,4.6,0.9,6.4c0.6,1.8,1.6,3.2,3,4.1c1.4,1,3.4,1.4,5.8,1.4c2,0,3.8-0.2,5.4-0.7c1.5-0.5,2.7-1.2,3.6-2
		c0.9-0.9,1.3-1.9,1.3-3v6.3c-1,1.1-2.3,2-3.8,2.7c-2,0.9-4.2,1.3-6.8,1.3c-3.1,0-5.8-0.7-8-2c-2.2-1.3-3.8-3.2-4.9-5.7
		c-1.1-2.4-1.7-5.4-1.7-8.7v-6.9c0-0.8,0.2-1.4,0.7-1.8C254.8,79.3,255.4,79.1,256.1,79.1 M281.2,78.6c-0.8,0-1.5,0.3-2.1,0.8
		c-0.6,0.6-0.9,1.3-0.9,2.1v13.1c0,1-0.4,1.9-1.2,2.7c-0.8,0.8-2,1.5-3.5,1.9c-1.5,0.5-3.3,0.7-5.2,0.7c-2.3,0-4.2-0.5-5.6-1.4
		c-1.3-0.9-2.3-2.2-2.9-3.9c-0.6-1.7-0.9-3.8-0.9-6.3v-6.9c0-0.9-0.3-1.6-0.8-2.1c-0.6-0.6-1.3-0.8-2.1-0.8c-0.8,0-1.5,0.3-2.1,0.8
		c-0.6,0.6-0.9,1.3-0.9,2.1v6.9c0,3.4,0.6,6.4,1.7,8.9c1.1,2.5,2.9,4.5,5.1,5.8c2.2,1.4,5,2.1,8.2,2.1c2.6,0,4.9-0.5,6.9-1.3
		c1.2-0.6,2.3-1.2,3.2-2.1v13c0,0.8,0.3,1.5,0.9,2.1c0.6,0.6,1.3,0.9,2.1,0.9c0.9,0,1.6-0.3,2.1-0.9c0.5-0.6,0.8-1.3,0.8-2.1V81.6
		c0-0.9-0.3-1.6-0.8-2.1C282.8,78.9,282.1,78.6,281.2,78.6L281.2,78.6z M279.1,95.1h1.6c-0.1,1.7-0.6,3.3-1.6,4.7c0,0,0,0,0,0V95.1
		L279.1,95.1z"/>
</g>
<g>
	<path class="st5" d="M306.2,117.9c-2.3,0-4.4-0.5-6.2-1.5c-1.8-1-3.3-2.4-4.3-4.3c-1-1.9-1.6-4.2-1.6-7V93c0-0.8,0.3-1.4,0.8-1.9
		c0.5-0.5,1.2-0.8,1.9-0.8c0.8,0,1.4,0.3,1.9,0.8c0.5,0.5,0.8,1.2,0.8,1.9v12.1c0,1.8,0.3,3.3,1,4.4c0.7,1.2,1.6,2,2.7,2.6
		c1.1,0.6,2.5,0.8,3.9,0.8c1.4,0,2.6-0.3,3.7-0.8c1.1-0.5,1.9-1.3,2.6-2.2c0.6-0.9,0.9-1.9,0.9-3.1V93c0-0.8,0.3-1.5,0.8-2
		c0.5-0.5,1.2-0.7,1.9-0.7c0.8,0,1.5,0.3,2,0.7c0.5,0.5,0.7,1.2,0.7,2V115c0,0.8-0.3,1.4-0.7,1.9c-0.5,0.5-1.2,0.8-2,0.8
		c-0.8,0-1.4-0.3-1.9-0.8c-0.5-0.5-0.8-1.2-0.8-1.9v-0.1c-0.6,0.6-1.4,1.1-2.2,1.6C310.4,117.4,308.4,117.9,306.2,117.9z"/>
	<path class="st5" d="M317.1,90.5c0.8,0,1.4,0.2,1.8,0.7c0.5,0.5,0.7,1.1,0.7,1.8V115c0,0.7-0.2,1.3-0.7,1.8
		c-0.5,0.5-1.1,0.7-1.8,0.7c-0.7,0-1.3-0.2-1.8-0.7c-0.5-0.5-0.7-1.1-0.7-1.8v-0.5c0.6-0.6,1.1-1.3,1.6-2c1-1.6,1.5-3.5,1.5-5.5
		h-3.1V93c0-0.8,0.2-1.4,0.7-1.8C315.7,90.7,316.3,90.5,317.1,90.5 M296.9,90.5c0.7,0,1.3,0.2,1.8,0.7c0.5,0.5,0.7,1.1,0.7,1.8v12.1
		c0,1.8,0.3,3.4,1,4.5c0.7,1.2,1.6,2.1,2.8,2.7c1.2,0.6,2.5,0.9,4,0.9c1.4,0,2.7-0.3,3.8-0.8c1.1-0.6,2-1.3,2.6-2.3c0.7-1,1-2,1-3.2
		v7.5c-0.7,0.7-1.5,1.3-2.5,1.9c-1.7,1-3.7,1.4-5.9,1.4c-2.3,0-4.3-0.5-6.1-1.5c-1.8-1-3.2-2.4-4.2-4.3c-1-1.9-1.5-4.2-1.5-6.9V93
		c0-0.7,0.2-1.3,0.7-1.8C295.5,90.8,296.1,90.5,296.9,90.5 M317.1,90.1c-0.8,0-1.5,0.3-2.1,0.8c-0.6,0.5-0.8,1.2-0.8,2.1v13.9
		c0,1.1-0.3,2.1-0.9,3c-0.6,0.9-1.4,1.6-2.5,2.1c-1,0.5-2.2,0.8-3.6,0.8c-1.4,0-2.7-0.3-3.8-0.8c-1.1-0.5-2-1.4-2.6-2.5
		c-0.6-1.1-1-2.6-1-4.3V93c0-0.8-0.3-1.5-0.8-2.1c-0.6-0.6-1.3-0.8-2.1-0.8c-0.8,0-1.5,0.3-2.1,0.8c-0.6,0.6-0.8,1.3-0.8,2.1v12.1
		c0,2.8,0.5,5.2,1.6,7.1c1.1,1.9,2.5,3.4,4.4,4.4c1.8,1,3.9,1.5,6.3,1.5c2.3,0,4.3-0.5,6.1-1.5c0.7-0.4,1.3-0.8,1.9-1.3
		c0.1,0.7,0.3,1.2,0.8,1.7c0.6,0.6,1.3,0.8,2.1,0.8c0.9,0,1.6-0.3,2.1-0.8c0.5-0.6,0.8-1.2,0.8-2.1V93c0-0.9-0.3-1.6-0.8-2.1
		C318.6,90.4,317.9,90.1,317.1,90.1L317.1,90.1z M315,107.3h2.3c-0.1,1.8-0.5,3.4-1.4,4.9c-0.3,0.4-0.5,0.8-0.8,1.2V107.3L315,107.3
		z"/>
</g>
<g>
	<path class="st5" d="M342.4,117.9c-2.6,0-5-0.6-7.1-1.8c-2.1-1.2-3.7-2.9-4.9-4.9c-1.2-2.1-1.8-4.4-1.8-7.1c0-2.7,0.6-5.1,1.7-7.2
		c1.2-2.1,2.8-3.7,4.8-4.9c2-1.2,4.4-1.8,7-1.8c2,0,3.8,0.4,5.4,1.1s3.1,1.9,4.4,3.4c0.5,0.6,0.7,1.2,0.5,1.8
		c-0.1,0.6-0.5,1.1-1.2,1.6c-0.4,0.3-0.8,0.4-1.2,0.4c-0.2,0-0.3,0-0.5,0c-0.6-0.1-1.1-0.4-1.6-0.9c-1.6-1.7-3.5-2.5-5.9-2.5
		c-1.6,0-3.1,0.4-4.3,1.1c-1.2,0.7-2.2,1.8-2.9,3.1c-0.7,1.3-1.1,2.9-1.1,4.8c0,1.7,0.4,3.3,1.1,4.6c0.7,1.3,1.7,2.4,3,3.2
		c1.3,0.8,2.8,1.2,4.5,1.2c1.1,0,2.1-0.1,3-0.4c0.8-0.3,1.6-0.7,2.3-1.3c0.6-0.5,1.1-0.7,1.7-0.8c0.1,0,0.1,0,0.2,0
		c0.5,0,1,0.2,1.4,0.5c0.6,0.5,0.9,1.1,1,1.7c0.1,0.6-0.1,1.2-0.6,1.7C349,116.7,345.9,117.9,342.4,117.9z"/>
	<path class="st5" d="M342.1,90.4c1.9,0,3.7,0.4,5.3,1.1c1.6,0.7,3,1.8,4.3,3.3c0.5,0.5,0.6,1.1,0.5,1.6c-0.1,0.6-0.5,1-1.1,1.5
		c-0.3,0.2-0.7,0.4-1.1,0.4c-0.1,0-0.3,0-0.4,0c-0.6-0.1-1.1-0.4-1.5-0.9c-1.6-1.7-3.6-2.6-6-2.6c-1.7,0-3.1,0.4-4.4,1.2
		c-1.3,0.8-2.3,1.8-3,3.2c-0.7,1.4-1.1,3-1.1,4.9c0,1.8,0.4,3.3,1.1,4.7c0.7,1.4,1.8,2.5,3.1,3.3c1.3,0.8,2.8,1.2,4.6,1.2
		c1.1,0,2.2-0.1,3-0.4c0.9-0.3,1.7-0.7,2.4-1.3c0.5-0.4,1.1-0.7,1.6-0.7c0.1,0,0.1,0,0.2,0c0.5,0,0.9,0.2,1.3,0.5
		c0.6,0.5,0.9,1,0.9,1.5c0.1,0.6-0.1,1.1-0.6,1.5c-2.4,2.2-5.3,3.3-8.9,3.3c-2.6,0-5-0.6-7-1.8c-2-1.2-3.7-2.8-4.8-4.9
		c-1.2-2-1.7-4.4-1.7-7c0-2.7,0.6-5,1.7-7.1c1.1-2.1,2.7-3.7,4.7-4.8C337.2,90.9,339.5,90.4,342.1,90.4 M342.1,90
		c-2.7,0-5,0.6-7.1,1.8c-2.1,1.2-3.7,2.9-4.9,5c-1.2,2.1-1.8,4.6-1.8,7.3c0,2.7,0.6,5.1,1.8,7.2c1.2,2.1,2.9,3.8,5,5
		c2.1,1.2,4.5,1.9,7.2,1.9c3.6,0,6.7-1.1,9.1-3.4c0.6-0.6,0.8-1.2,0.7-1.9c-0.1-0.7-0.4-1.3-1.1-1.8c-0.4-0.4-1-0.6-1.5-0.6
		c-0.1,0-0.2,0-0.2,0c-0.6,0.1-1.3,0.3-1.8,0.8c-0.7,0.6-1.4,1-2.3,1.2c-0.8,0.3-1.8,0.4-2.9,0.4c-1.7,0-3.1-0.4-4.4-1.1
		c-1.2-0.8-2.2-1.8-2.9-3.1c-0.7-1.3-1.1-2.8-1.1-4.5c0-1.8,0.3-3.4,1-4.7c0.7-1.3,1.6-2.3,2.9-3.1c1.2-0.7,2.6-1.1,4.2-1.1
		c2.3,0,4.2,0.8,5.7,2.4c0.5,0.5,1.1,0.8,1.7,1c0.2,0,0.3,0.1,0.5,0.1c0.5,0,0.9-0.1,1.3-0.4c0.7-0.5,1.1-1.1,1.2-1.7
		c0.2-0.7,0-1.4-0.6-2c-1.3-1.5-2.8-2.7-4.5-3.4C346,90.3,344.1,90,342.1,90L342.1,90z"/>
</g>
<g>
	<path class="st5" d="M396.8,117.7c-0.8,0-1.4-0.3-1.9-0.8c-0.5-0.5-0.8-1.2-0.8-1.9v-14.1c0-2-0.5-3.5-1.5-4.5
		c-1-1-2.3-1.4-3.8-1.4c-1.6,0-3,0.6-4.1,1.7c-1.1,1.1-1.6,2.6-1.6,4.4V115c0,0.8-0.3,1.4-0.7,1.9c-0.5,0.5-1.2,0.8-2,0.8
		c-0.8,0-1.4-0.3-1.9-0.8c-0.5-0.5-0.8-1.2-0.8-1.9v-14.1c0-2-0.5-3.5-1.5-4.5c-1-1-2.3-1.4-3.8-1.4c-1.6,0-3,0.6-4.1,1.7
		c-1.1,1.1-1.6,2.6-1.6,4.4V115c0,0.8-0.3,1.4-0.7,1.9c-0.5,0.5-1.2,0.8-2,0.8c-0.8,0-1.4-0.3-1.9-0.8c-0.5-0.5-0.8-1.2-0.8-1.9
		V93.1c0-0.8,0.3-1.5,0.8-2c0.5-0.5,1.2-0.7,1.9-0.7c0.8,0,1.5,0.3,2,0.7c0.4,0.4,0.6,0.9,0.7,1.4c0.4-0.4,0.9-0.8,1.5-1.1
		c1.5-0.9,3.3-1.4,5.3-1.4c1.9,0,3.6,0.4,5.1,1.3c1.1,0.6,2,1.4,2.7,2.4c0.8-0.9,1.7-1.7,2.8-2.3c1.7-0.9,3.6-1.4,5.8-1.4
		c1.9,0,3.6,0.4,5.1,1.3c1.5,0.8,2.6,2.1,3.4,3.7c0.8,1.6,1.2,3.6,1.2,5.9V115c0,0.8-0.3,1.4-0.7,1.9
		C398.3,117.5,397.6,117.7,396.8,117.7z"/>
	<path class="st5" d="M389.8,90.3c1.9,0,3.5,0.4,5,1.2c1.4,0.8,2.6,2,3.4,3.6c0.8,1.6,1.2,3.5,1.2,5.8V115c0,0.7-0.2,1.3-0.7,1.8
		c-0.5,0.5-1.1,0.7-1.8,0.7c-0.7,0-1.3-0.2-1.8-0.7c-0.5-0.5-0.7-1.1-0.7-1.8v-14.1c0-2.1-0.5-3.6-1.5-4.6c-1-1-2.3-1.5-4-1.5
		c-1.7,0-3.1,0.6-4.2,1.8c-1.1,1.2-1.6,2.7-1.6,4.5v-0.2c0-2.3-0.4-4.2-1.2-5.8c-0.2-0.4-0.4-0.7-0.6-1c0.8-1,1.8-1.8,2.9-2.5
		C385.7,90.8,387.6,90.3,389.8,90.3 M373.4,90.3c1.9,0,3.5,0.4,5,1.2c1.1,0.6,2,1.5,2.8,2.6c-0.3,0.4-0.6,0.9-0.9,1.4
		c-0.9,1.6-1.4,3.5-1.4,5.6h4.1V115c0,0.7-0.2,1.3-0.7,1.8c-0.5,0.5-1.1,0.7-1.8,0.7c-0.7,0-1.3-0.2-1.8-0.7
		c-0.5-0.5-0.7-1.1-0.7-1.8v-14.1c0-2.1-0.5-3.6-1.5-4.6c-1-1-2.3-1.5-4-1.5c-1.7,0-3.1,0.6-4.2,1.8c-1.1,1.2-1.7,2.7-1.7,4.5v-8
		c0,0,0-0.1,0-0.1c0.5-0.5,1.1-1,1.7-1.3C369.7,90.8,371.5,90.3,373.4,90.3 M364,90.6c0.8,0,1.4,0.2,1.8,0.7c0.4,0.4,0.7,1,0.7,1.7
		c-0.7,0.7-1.3,1.5-1.8,2.5c-0.9,1.6-1.3,3.5-1.3,5.6h3.1V115c0,0.7-0.2,1.3-0.7,1.8c-0.5,0.5-1.1,0.7-1.8,0.7
		c-0.7,0-1.3-0.2-1.8-0.7c-0.5-0.5-0.7-1.1-0.7-1.8V93.1c0-0.8,0.2-1.4,0.7-1.8C362.7,90.8,363.3,90.6,364,90.6 M389.8,89.9
		c-2.2,0-4.2,0.5-5.9,1.4c-1,0.6-2,1.3-2.7,2.2c-0.7-0.9-1.6-1.7-2.6-2.3c-1.5-0.9-3.2-1.3-5.2-1.3c-2,0-3.8,0.5-5.4,1.4
		c-0.4,0.3-0.8,0.6-1.2,0.9c-0.1-0.5-0.4-0.9-0.7-1.2c-0.5-0.5-1.2-0.8-2.1-0.8c-0.8,0-1.5,0.3-2.1,0.8c-0.6,0.5-0.8,1.2-0.8,2.1
		V115c0,0.8,0.3,1.5,0.8,2.1c0.6,0.6,1.3,0.8,2.1,0.8c0.9,0,1.6-0.3,2.1-0.8c0.5-0.6,0.8-1.2,0.8-2.1v-13.9c0-1.7,0.5-3.1,1.6-4.2
		c1-1.1,2.3-1.6,3.9-1.6c1.5,0,2.8,0.5,3.7,1.4c0.9,0.9,1.4,2.4,1.4,4.3V115c0,0.8,0.3,1.5,0.8,2.1c0.6,0.6,1.3,0.8,2.1,0.8
		c0.9,0,1.6-0.3,2.1-0.8c0.5-0.6,0.8-1.2,0.8-2.1v-13.9c0-1.7,0.5-3.2,1.5-4.2c1-1.1,2.3-1.6,3.9-1.6c1.5,0,2.8,0.5,3.7,1.4
		c0.9,0.9,1.4,2.4,1.4,4.3V115c0,0.8,0.3,1.5,0.8,2.1c0.6,0.6,1.3,0.8,2.1,0.8c0.9,0,1.6-0.3,2.1-0.8c0.5-0.6,0.8-1.3,0.8-2.1v-14.1
		c0-2.3-0.4-4.3-1.2-6c-0.8-1.7-2-2.9-3.5-3.8C393.4,90.3,391.7,89.9,389.8,89.9L389.8,89.9z M363.8,100.7c0.1-1.9,0.5-3.6,1.2-5
		c0.3-0.6,0.7-1.1,1.1-1.6v6.6H363.8L363.8,100.7z M379.3,100.7c0.1-1.9,0.5-3.6,1.3-5c0.2-0.3,0.3-0.6,0.5-0.8
		c0.1,0.2,0.2,0.3,0.3,0.5c0.7,1.5,1.1,3.3,1.2,5.4H379.3L379.3,100.7z"/>
</g>
<g>
	<path class="st5" d="M421.6,117.9c-2.7,0-5.1-0.6-7.1-1.8c-2.1-1.2-3.7-2.8-4.9-4.9c-1.2-2.1-1.8-4.5-1.8-7.2
		c0-2.7,0.6-5.1,1.8-7.2c1.2-2.1,2.8-3.7,4.9-4.9c2.1-1.2,4.5-1.8,7.1-1.8c2.6,0,5,0.6,7.1,1.8c2.1,1.2,3.7,2.8,4.9,4.9
		c1.2,2.1,1.8,4.5,1.8,7.2c0,2.7-0.6,5.1-1.7,7.2c-1.2,2.1-2.8,3.7-4.8,4.9C426.6,117.3,424.2,117.9,421.6,117.9z M421.6,95
		c-1.7,0-3.1,0.4-4.4,1.2c-1.3,0.8-2.3,1.8-3,3.2c-0.7,1.4-1.1,2.9-1.1,4.7s0.4,3.3,1.1,4.7c0.7,1.3,1.8,2.4,3,3.2
		c1.3,0.8,2.8,1.2,4.4,1.2c1.7,0,3.1-0.4,4.4-1.2c1.3-0.8,2.3-1.8,3-3.2c0.7-1.3,1.1-2.9,1.1-4.7c0-1.8-0.4-3.3-1.1-4.7
		c-0.7-1.4-1.7-2.4-3-3.2C424.7,95.4,423.2,95,421.6,95z"/>
	<path class="st5" d="M421.6,90.4c2.6,0,4.9,0.6,7,1.7c2,1.2,3.6,2.8,4.8,4.8c1.2,2,1.7,4.4,1.7,7.1c0,2.7-0.6,5-1.7,7.1
		c-1.1,2-2.7,3.7-4.8,4.8c-2,1.2-4.4,1.7-7,1.7c-2.7,0-5-0.6-7-1.7c-2-1.2-3.6-2.8-4.8-4.8c-1.2-2-1.7-4.4-1.7-7.1
		c0-2.7,0.6-5.1,1.7-7.1c1.2-2,2.8-3.7,4.8-4.8C416.6,90.9,418.9,90.4,421.6,90.4 M421.6,113.2c1.7,0,3.2-0.4,4.5-1.2
		c1.3-0.8,2.3-1.9,3.1-3.2c0.7-1.4,1.1-3,1.1-4.8c0-1.8-0.4-3.4-1.1-4.8c-0.7-1.4-1.8-2.5-3.1-3.3c-1.3-0.8-2.8-1.2-4.5-1.2
		c-1.7,0-3.2,0.4-4.5,1.2c-1.3,0.8-2.3,1.9-3.1,3.3c-0.8,1.4-1.1,3-1.1,4.8c0,1.8,0.4,3.4,1.1,4.8c0.8,1.4,1.8,2.5,3.1,3.2
		C418.3,112.8,419.9,113.2,421.6,113.2 M421.6,90c-2.7,0-5.1,0.6-7.2,1.8c-2.1,1.2-3.8,2.9-4.9,5c-1.2,2.1-1.8,4.6-1.8,7.3
		c0,2.7,0.6,5.2,1.8,7.3c1.2,2.1,2.9,3.8,4.9,5c2.1,1.2,4.5,1.8,7.2,1.8c2.7,0,5.1-0.6,7.2-1.8c2.1-1.2,3.7-2.9,4.9-5
		c1.2-2.1,1.8-4.5,1.8-7.3c0-2.7-0.6-5.2-1.8-7.3c-1.2-2.1-2.9-3.8-4.9-5C426.7,90.6,424.2,90,421.6,90L421.6,90z M421.6,112.8
		c-1.6,0-3.1-0.4-4.3-1.1c-1.2-0.7-2.2-1.8-3-3.1c-0.7-1.3-1.1-2.8-1.1-4.6c0-1.7,0.4-3.3,1.1-4.6c0.7-1.3,1.7-2.4,2.9-3.1
		c1.2-0.7,2.7-1.1,4.3-1.1c1.6,0,3.1,0.4,4.3,1.1c1.2,0.7,2.2,1.8,2.9,3.1c0.7,1.3,1.1,2.9,1.1,4.6c0,1.7-0.4,3.3-1.1,4.6
		c-0.7,1.3-1.7,2.3-2.9,3.1C424.6,112.4,423.2,112.8,421.6,112.8L421.6,112.8z"/>
</g>
<g>
	<path class="st5" d="M452.6,117.9c-2.1,0-4-0.3-5.6-1c-1.6-0.6-3-1.6-3.9-2.7c-1-1.2-1.4-2.5-1.4-4.1c0-1.5,0.4-2.8,1.3-3.9
		c0.9-1.1,2.1-2,3.7-2.7c1.6-0.7,3.5-1.3,5.8-1.7c2.2-0.4,3.7-1,4.4-1.6c0.7-0.6,1.1-1.4,1.1-2.3c0-1-0.5-1.7-1.5-2.2
		c-1-0.5-2.2-0.7-3.6-0.7c-1.1,0-2.2,0.2-3.4,0.5c-1.1,0.4-2,0.9-2.8,1.5c-0.5,0.5-1.1,0.8-1.7,1c-0.3,0.1-0.5,0.1-0.7,0.1
		c-0.3,0-0.6-0.1-0.9-0.2c-0.7-0.4-1.1-1-1.2-1.6c-0.2-0.7,0-1.3,0.5-1.9c1-1.2,2.4-2.2,4.2-3c1.8-0.7,3.8-1.1,6-1.1
		c1.9,0,3.6,0.3,5.1,0.9c1.5,0.6,2.8,1.5,3.7,2.6c0.9,1.1,1.4,2.6,1.4,4.3c0,2-0.8,3.6-2.4,5c-1.6,1.3-4,2.3-7.1,3
		c-2.6,0.5-4.3,1.1-5.3,1.8c-0.9,0.7-1.4,1.4-1.3,2.4c0,1,0.5,1.7,1.4,2.2c0.9,0.5,2.3,0.8,4.2,0.8c1.7,0,3.1-0.2,4.3-0.5
		c1.2-0.3,2.1-0.9,2.7-1.5c0.5-0.5,1-0.9,1.7-1c0.2,0,0.3-0.1,0.5-0.1c0.5,0,1,0.2,1.5,0.6c0.6,0.5,0.9,1.1,0.9,1.7
		c0,0.6-0.3,1.3-0.8,1.8c-1.1,1.1-2.6,2-4.6,2.7C456.9,117.5,454.8,117.9,452.6,117.9z"/>
	<path class="st5" d="M453,90.4c1.8,0,3.5,0.3,5,0.9c1.5,0.6,2.7,1.4,3.6,2.5c0.9,1.1,1.4,2.5,1.4,4.1c0,1.9-0.8,3.5-2.3,4.8
		c-1.5,1.3-3.9,2.3-7,3c-2.6,0.5-4.4,1.1-5.4,1.8c-1,0.7-1.5,1.5-1.4,2.5c0,1,0.5,1.8,1.5,2.4c1,0.6,2.4,0.8,4.3,0.8
		c1.7,0,3.2-0.2,4.4-0.5c1.2-0.3,2.1-0.9,2.8-1.6c0.5-0.5,1-0.8,1.6-1c0.1,0,0.3-0.1,0.4-0.1c0.5,0,0.9,0.2,1.4,0.6
		c0.6,0.5,0.8,1,0.8,1.6c0,0.6-0.2,1.1-0.7,1.7c-1.1,1.1-2.6,2-4.5,2.7c-1.9,0.7-4,1.1-6.1,1.1c-2.1,0-3.9-0.3-5.5-1
		c-1.6-0.6-2.9-1.5-3.8-2.7c-0.9-1.1-1.4-2.5-1.4-3.9c0-1.5,0.4-2.7,1.3-3.8c0.8-1,2-1.9,3.6-2.7c1.6-0.7,3.5-1.3,5.7-1.7
		c2.2-0.5,3.7-1,4.5-1.6c0.8-0.6,1.2-1.5,1.2-2.5c0-1-0.5-1.8-1.6-2.3c-1.1-0.5-2.3-0.8-3.6-0.8c-1.1,0-2.3,0.2-3.4,0.5
		c-1.1,0.4-2.1,0.9-2.8,1.6c-0.5,0.5-1,0.8-1.6,0.9c-0.2,0.1-0.5,0.1-0.7,0.1c-0.3,0-0.5-0.1-0.7-0.2c-0.6-0.4-1-0.9-1.2-1.5
		c-0.1-0.6,0-1.2,0.4-1.7c1-1.2,2.4-2.2,4.2-2.9C448.9,90.7,450.9,90.4,453,90.4 M453,90c-2.2,0-4.3,0.4-6.1,1.1
		c-1.8,0.8-3.3,1.8-4.3,3c-0.5,0.6-0.7,1.3-0.5,2.1c0.2,0.7,0.6,1.3,1.3,1.8c0.3,0.2,0.6,0.3,1,0.3c0.2,0,0.5,0,0.8-0.1
		c0.7-0.2,1.3-0.5,1.8-1c0.7-0.6,1.6-1.1,2.7-1.5c1.1-0.3,2.2-0.5,3.3-0.5c1.3,0,2.5,0.2,3.5,0.7c0.9,0.4,1.3,1.1,1.3,2
		c0,0.9-0.3,1.6-1,2.2c-0.7,0.6-2.2,1.1-4.3,1.6c-2.2,0.4-4.2,1-5.8,1.7c-1.6,0.7-2.9,1.7-3.8,2.8c-0.9,1.1-1.3,2.5-1.3,4
		c0,1.6,0.5,3,1.5,4.2c1,1.2,2.3,2.1,4,2.8c1.7,0.7,3.6,1,5.7,1c2.2,0,4.3-0.4,6.3-1.1c2-0.7,3.6-1.7,4.7-2.8c0.6-0.6,0.9-1.3,0.9-2
		c0-0.7-0.3-1.3-1-1.9c-0.5-0.5-1.1-0.7-1.7-0.7c-0.2,0-0.4,0-0.5,0.1c-0.7,0.2-1.3,0.6-1.8,1.1c-0.6,0.7-1.5,1.2-2.6,1.5
		c-1.2,0.3-2.6,0.5-4.2,0.5c-1.8,0-3.2-0.3-4.1-0.8c-0.8-0.5-1.2-1.1-1.3-2c0-0.8,0.4-1.6,1.3-2.2c0.9-0.7,2.7-1.3,5.2-1.8
		c3.2-0.7,5.6-1.7,7.2-3.1c1.6-1.4,2.5-3.1,2.5-5.1c0-1.7-0.5-3.2-1.4-4.4c-0.9-1.2-2.2-2.1-3.8-2.7C456.6,90.3,454.9,90,453,90
		L453,90z"/>
</g>
<g>
	<path class="st5" d="M484.1,117.9c-2.7,0-5.1-0.6-7.1-1.8c-2.1-1.2-3.7-2.8-4.9-4.9c-1.2-2.1-1.8-4.5-1.8-7.2
		c0-2.7,0.6-5.1,1.8-7.2c1.2-2.1,2.8-3.7,4.9-4.9c2.1-1.2,4.5-1.8,7.1-1.8c2.6,0,5,0.6,7.1,1.8c2.1,1.2,3.7,2.8,4.9,4.9
		c1.2,2.1,1.8,4.5,1.8,7.2c0,2.7-0.6,5.1-1.7,7.2c-1.2,2.1-2.8,3.7-4.8,4.9C489.2,117.3,486.8,117.9,484.1,117.9z M484.1,95
		c-1.7,0-3.1,0.4-4.4,1.2c-1.3,0.8-2.3,1.8-3,3.2c-0.7,1.4-1.1,2.9-1.1,4.7s0.4,3.3,1.1,4.7c0.7,1.3,1.8,2.4,3,3.2
		c1.3,0.8,2.8,1.2,4.4,1.2c1.7,0,3.1-0.4,4.4-1.2s2.3-1.8,3-3.2c0.7-1.3,1.1-2.9,1.1-4.7c0-1.8-0.4-3.3-1.1-4.7
		c-0.7-1.4-1.7-2.4-3-3.2C487.3,95.4,485.8,95,484.1,95z"/>
	<path class="st5" d="M484.1,90.4c2.6,0,4.9,0.6,7,1.7c2,1.2,3.6,2.8,4.8,4.8c1.2,2,1.7,4.4,1.7,7.1c0,2.7-0.6,5-1.7,7.1
		c-1.1,2-2.7,3.7-4.8,4.8c-2,1.2-4.4,1.7-7,1.7c-2.7,0-5-0.6-7-1.7c-2-1.2-3.6-2.8-4.8-4.8c-1.2-2-1.7-4.4-1.7-7.1
		c0-2.7,0.6-5.1,1.7-7.1c1.2-2,2.8-3.7,4.8-4.8C479.1,90.9,481.5,90.4,484.1,90.4 M484.1,113.2c1.7,0,3.2-0.4,4.5-1.2
		c1.3-0.8,2.3-1.9,3.1-3.2c0.7-1.4,1.1-3,1.1-4.8c0-1.8-0.4-3.4-1.1-4.8c-0.7-1.4-1.8-2.5-3.1-3.3c-1.3-0.8-2.8-1.2-4.5-1.2
		c-1.7,0-3.2,0.4-4.5,1.2c-1.3,0.8-2.3,1.9-3.1,3.3c-0.8,1.4-1.1,3-1.1,4.8c0,1.8,0.4,3.4,1.1,4.8c0.8,1.4,1.8,2.5,3.1,3.2
		C480.9,112.8,482.4,113.2,484.1,113.2 M484.1,90c-2.7,0-5.1,0.6-7.2,1.8c-2.1,1.2-3.8,2.9-4.9,5c-1.2,2.1-1.8,4.6-1.8,7.3
		c0,2.7,0.6,5.2,1.8,7.3c1.2,2.1,2.9,3.8,4.9,5c2.1,1.2,4.5,1.8,7.2,1.8c2.7,0,5.1-0.6,7.2-1.8c2.1-1.2,3.7-2.9,4.9-5
		c1.2-2.1,1.8-4.5,1.8-7.3c0-2.7-0.6-5.2-1.8-7.3c-1.2-2.1-2.9-3.8-4.9-5C489.2,90.6,486.8,90,484.1,90L484.1,90z M484.1,112.8
		c-1.6,0-3.1-0.4-4.3-1.1c-1.2-0.7-2.2-1.8-3-3.1c-0.7-1.3-1.1-2.8-1.1-4.6c0-1.7,0.4-3.3,1.1-4.6c0.7-1.3,1.7-2.4,2.9-3.1
		c1.2-0.7,2.7-1.1,4.3-1.1c1.6,0,3.1,0.4,4.3,1.1c1.2,0.7,2.2,1.8,2.9,3.1c0.7,1.3,1.1,2.9,1.1,4.6c0,1.7-0.4,3.3-1.1,4.6
		c-0.7,1.3-1.7,2.3-2.9,3.1C487.2,112.4,485.8,112.8,484.1,112.8L484.1,112.8z"/>
</g>
<g>
	<path class="st5" d="M288.8,177.4c-0.8,0-1.4-0.3-2-0.8c-0.5-0.5-0.8-1.2-0.8-2v-6h-29.1v6c0,0.8-0.3,1.4-0.8,2
		c-0.5,0.5-1.2,0.8-2,0.8c-0.8,0-1.4-0.3-2-0.8c-0.5-0.5-0.8-1.2-0.8-2v-8.2c0-0.8,0.3-1.5,0.8-2c0.5-0.5,1.2-0.8,2-0.8h1.3l13.4-32
		c0.5-1.2,1.4-1.8,2.6-1.8c1.3,0,2.1,0.6,2.6,1.9l13.4,32h1.2c0.8,0,1.5,0.3,2,0.8c0.5,0.5,0.8,1.2,0.8,2v8.2c0,0.8-0.3,1.4-0.8,2
		C290.2,177.1,289.6,177.4,288.8,177.4z M282.2,163.7L271.5,138l-10.4,25.8H282.2z"/>
	<path class="st5" d="M271.5,130.1c1.2,0,2,0.6,2.4,1.7l13.5,32.2h-4.9l-10.9-26.5l0.3-0.8h-0.7l0.3,0.8l-10.7,26.5h-5.2l13.5-32.2
		C269.6,130.6,270.4,130.1,271.5,130.1 M288.8,163.9c0.8,0,1.4,0.2,1.8,0.7c0.5,0.5,0.7,1.1,0.7,1.8v8.2c0,0.7-0.2,1.3-0.7,1.8
		c-0.5,0.5-1.1,0.7-1.8,0.7c-0.7,0-1.3-0.2-1.8-0.7c-0.5-0.5-0.7-1.1-0.7-1.8v-6.2h-29.5v6.2c0,0.7-0.2,1.3-0.7,1.8
		c-0.5,0.5-1.1,0.7-1.8,0.7c-0.7,0-1.3-0.2-1.8-0.7c-0.5-0.5-0.7-1.1-0.7-1.8v-8.2c0-0.8,0.2-1.4,0.7-1.8c0.5-0.5,1.1-0.7,1.8-0.7
		h1.5l-0.4,0.8l4.4,2.1l1.2-3h21.6l1.2,3l4.1-2l-0.4-0.9H288.8 M271.5,129.6c-1.3,0-2.2,0.7-2.8,2l-13.4,31.9h-1.2
		c-0.8,0-1.5,0.3-2.1,0.8c-0.6,0.6-0.9,1.3-0.9,2.1v8.2c0,0.8,0.3,1.5,0.9,2.1c0.6,0.6,1.3,0.9,2.1,0.9c0.9,0,1.6-0.3,2.1-0.9
		c0.5-0.6,0.8-1.3,0.8-2.1v-5.8h28.7v5.8c0,0.8,0.3,1.5,0.9,2.1c0.6,0.6,1.3,0.9,2.1,0.9c0.9,0,1.6-0.3,2.1-0.9
		c0.5-0.6,0.8-1.3,0.8-2.1v-8.2c0-0.9-0.3-1.6-0.8-2.1c-0.6-0.6-1.3-0.8-2.1-0.8h-1.1l-13.4-31.9
		C273.8,130.3,272.8,129.6,271.5,129.6L271.5,129.6z M261.4,163.5l10.1-25l10.3,25H261.4L261.4,163.5z M283.1,164.3h4l0.1,0.3
		l-3.3,1.7L283.1,164.3L283.1,164.3z M255.9,164.3h4.3l-0.8,2l-3.6-1.8L255.9,164.3L255.9,164.3z"/>
</g>
<g>
	<path class="st5" d="M308.5,168.9c-2.7,0-5.1-0.6-7.1-1.8c-2.1-1.2-3.7-2.8-4.9-4.9c-1.2-2.1-1.8-4.5-1.8-7.2
		c0-2.7,0.6-5.1,1.8-7.2c1.2-2.1,2.8-3.7,4.9-4.9c2.1-1.2,4.5-1.8,7.1-1.8c2.6,0,5,0.6,7.1,1.8c2.1,1.2,3.7,2.8,4.9,4.9
		c1.2,2.1,1.8,4.5,1.8,7.2c0,2.7-0.6,5.1-1.7,7.2c-1.2,2.1-2.8,3.7-4.8,4.9C313.6,168.3,311.2,168.9,308.5,168.9z M308.5,146
		c-1.7,0-3.1,0.4-4.4,1.2c-1.3,0.8-2.3,1.8-3,3.2c-0.7,1.4-1.1,2.9-1.1,4.7s0.4,3.3,1.1,4.7c0.7,1.3,1.8,2.4,3,3.2
		c1.3,0.8,2.8,1.2,4.4,1.2c1.7,0,3.1-0.4,4.4-1.2s2.3-1.8,3-3.2c0.7-1.3,1.1-2.9,1.1-4.7c0-1.8-0.4-3.3-1.1-4.7
		c-0.7-1.4-1.7-2.4-3-3.2C311.6,146.4,310.1,146,308.5,146z"/>
	<path class="st5" d="M308.5,141.4c2.6,0,4.9,0.6,7,1.7c2,1.2,3.6,2.8,4.8,4.8c1.2,2,1.7,4.4,1.7,7.1c0,2.7-0.6,5-1.7,7.1
		c-1.1,2-2.7,3.7-4.8,4.8c-2,1.2-4.4,1.7-7,1.7c-2.7,0-5-0.6-7-1.7c-2-1.2-3.6-2.8-4.8-4.8c-1.2-2-1.7-4.4-1.7-7.1
		c0-2.7,0.6-5.1,1.7-7.1c1.2-2,2.8-3.7,4.8-4.8C303.5,141.9,305.8,141.4,308.5,141.4 M308.5,164.2c1.7,0,3.2-0.4,4.5-1.2
		c1.3-0.8,2.3-1.9,3.1-3.2c0.7-1.4,1.1-3,1.1-4.8c0-1.8-0.4-3.4-1.1-4.8c-0.7-1.4-1.8-2.5-3.1-3.3c-1.3-0.8-2.8-1.2-4.5-1.2
		c-1.7,0-3.2,0.4-4.5,1.2c-1.3,0.8-2.3,1.9-3.1,3.3c-0.8,1.4-1.1,3-1.1,4.8c0,1.8,0.4,3.4,1.1,4.8c0.8,1.4,1.8,2.5,3.1,3.2
		C305.3,163.8,306.8,164.2,308.5,164.2 M308.5,141c-2.7,0-5.1,0.6-7.2,1.8c-2.1,1.2-3.8,2.9-4.9,5c-1.2,2.1-1.8,4.6-1.8,7.3
		c0,2.7,0.6,5.2,1.8,7.3c1.2,2.1,2.9,3.8,4.9,5c2.1,1.2,4.5,1.8,7.2,1.8c2.7,0,5.1-0.6,7.2-1.8c2.1-1.2,3.7-2.9,4.9-5
		c1.2-2.1,1.8-4.5,1.8-7.3c0-2.7-0.6-5.2-1.8-7.3c-1.2-2.1-2.9-3.8-4.9-5C313.6,141.6,311.2,141,308.5,141L308.5,141z M308.5,163.8
		c-1.6,0-3.1-0.4-4.3-1.1c-1.2-0.7-2.2-1.8-3-3.1c-0.7-1.3-1.1-2.8-1.1-4.6c0-1.7,0.4-3.3,1.1-4.6c0.7-1.3,1.7-2.4,2.9-3.1
		c1.2-0.7,2.7-1.1,4.3-1.1c1.6,0,3.1,0.4,4.3,1.1c1.2,0.7,2.2,1.8,2.9,3.1c0.7,1.3,1.1,2.9,1.1,4.6c0,1.7-0.4,3.3-1.1,4.6
		c-0.7,1.3-1.7,2.3-2.9,3.1C311.5,163.4,310.1,163.8,308.5,163.8L308.5,163.8z"/>
</g>
<g>
	<path class="st5" d="M331.3,168.7c-0.8,0-1.4-0.3-1.9-0.8c-0.5-0.5-0.8-1.2-0.8-1.9V144c0.1-0.8,0.4-1.4,0.8-1.9
		c0.5-0.5,1.1-0.7,1.9-0.7h12.3c1.6,0,3,0.3,4.2,0.9c1.2,0.6,2.2,1.5,2.9,2.6c0.7,1.1,1.1,2.4,1.1,3.8c0,2-0.7,3.6-2.2,4.9
		c-0.4,0.3-0.8,0.6-1.2,0.8c1.3,0.6,2.4,1.5,3.2,2.6c0.8,1.1,1.2,2.5,1.2,3.9c0,1.5-0.4,2.9-1.2,4c-0.8,1.2-1.9,2.1-3.4,2.8
		c-1.4,0.7-3.1,1-4.9,1H331.3z M343.3,163.6c1.3,0,2.3-0.3,3.1-0.9c0.8-0.6,1.2-1.4,1.2-2.3c0-1-0.4-1.8-1.2-2.5
		c-0.8-0.7-1.8-1-3.1-1H334v6.7H343.3z M344.1,152.3c0.8,0,1.4-0.3,1.9-0.9c0.5-0.6,0.7-1.4,0.7-2.3c0-0.8-0.3-1.4-0.9-2
		c-0.6-0.5-1.3-0.8-2.2-0.8H334v5.9H344.1z"/>
	<path class="st5" d="M343.6,141.6c1.5,0,2.9,0.3,4.1,0.9c1.2,0.6,2.1,1.4,2.8,2.5c0.7,1.1,1,2.3,1,3.7c0,1.9-0.7,3.5-2.1,4.7
		c-0.5,0.4-1,0.7-1.5,1c-1.3-0.6-2.9-0.8-4.6-0.8v-1h0.8c0.8,0,1.5-0.3,2-1c0.5-0.6,0.8-1.5,0.8-2.4c0-0.9-0.3-1.6-0.9-2.1
		c-0.6-0.6-1.4-0.8-2.4-0.8h-9.8v-2.1c0-0.8-0.2-1.4-0.7-1.8c-0.4-0.4-1-0.7-1.8-0.7v0H343.6 M331.3,141.6
		C331.3,141.6,331.3,141.6,331.3,141.6l0,4.6h2.5v6.3h9.5h-3.9v2.7h4.7c1.4,0,2.7-0.3,3.8-0.8c0.1,0,0.1,0.1,0.2,0.1
		c1.4,0.6,2.5,1.5,3.3,2.6c0.8,1.1,1.2,2.4,1.2,3.8c0,1.5-0.4,2.8-1.2,3.9c-0.8,1.1-1.9,2-3.3,2.7c-1.4,0.7-3,1-4.8,1h-12
		c-0.7,0-1.3-0.2-1.8-0.7c-0.5-0.5-0.7-1.1-0.7-1.8V144c0.1-0.7,0.3-1.3,0.8-1.8C330,141.8,330.6,141.6,331.3,141.6 M333.8,163.8
		h9.5c1.3,0,2.4-0.3,3.2-1c0.8-0.6,1.2-1.5,1.2-2.5c0-1.1-0.4-2-1.2-2.7c-0.8-0.7-1.9-1-3.2-1h-9.5V163.8 M343.6,141.2h-12.3v0l0,0
		c-0.8,0-1.5,0.3-2,0.8c-0.5,0.5-0.8,1.2-0.9,2l0,22c0,0.8,0.3,1.5,0.8,2.1c0.6,0.6,1.3,0.8,2.1,0.8h12c1.9,0,3.5-0.3,5-1
		c1.5-0.7,2.6-1.6,3.4-2.8c0.8-1.2,1.3-2.6,1.3-4.2c0-1.5-0.4-2.9-1.3-4c-0.7-1-1.7-1.8-2.9-2.5c0.3-0.2,0.6-0.4,0.9-0.7
		c1.5-1.3,2.3-3,2.3-5c0-1.4-0.4-2.8-1.1-3.9c-0.7-1.1-1.7-2-3-2.6C346.7,141.5,345.2,141.2,343.6,141.2L343.6,141.2z M331.8,145.8
		V142c0.4,0.1,0.8,0.2,1.1,0.5c0.4,0.4,0.6,0.9,0.6,1.5v1.7H331.8L331.8,145.8z M334.2,146.6h9.4c0.9,0,1.5,0.2,2.1,0.7
		c0.5,0.5,0.8,1.1,0.8,1.8c0,0.9-0.2,1.6-0.7,2.2c-0.4,0.5-1,0.8-1.7,0.8h-0.8h-9.1V146.6L334.2,146.6z M339.9,152.9h3.1v0.6v0.4
		h0.4c1.2,0,2.4,0.2,3.4,0.5c-0.8,0.3-1.7,0.4-2.7,0.4h-4.3V152.9L339.9,152.9z M334.2,157.1h9.1c1.2,0,2.2,0.3,2.9,0.9
		c0.7,0.6,1.1,1.4,1.1,2.3c0,0.9-0.4,1.6-1.1,2.2c-0.7,0.6-1.7,0.9-2.9,0.9h-9.1V157.1L334.2,157.1z"/>
</g>
<g>
	<path class="st5" d="M362.9,168.7c-0.8,0-1.4-0.3-1.9-0.8c-0.5-0.5-0.7-1.2-0.7-1.9v-21.9c0-0.8,0.2-1.5,0.7-2
		c0.5-0.5,1.1-0.8,1.9-0.8c0.8,0,1.5,0.3,2,0.7c0.5,0.5,0.8,1.2,0.8,2v8h3.5l8.8-9.9c0.5-0.5,1.1-0.8,1.9-0.9c0.1,0,0.2,0,0.3,0
		c0.7,0,1.2,0.2,1.6,0.6c0.5,0.5,0.8,1.1,0.9,1.7c0.1,0.6-0.1,1.2-0.6,1.7l-8.8,9.4l9.3,10c0.5,0.5,0.7,1,0.7,1.6
		c0,0.6-0.3,1.2-0.9,1.7c-0.4,0.4-1.1,0.6-1.8,0.6l-0.1,0c-0.8,0-1.5-0.3-1.9-0.7l-10.1-10.8h-2.9v8.9c0,0.8-0.3,1.4-0.8,1.9
		C364.3,168.5,363.7,168.7,362.9,168.7z"/>
	<path class="st5" d="M380.2,141.5c0.6,0,1.1,0.2,1.5,0.5c0.5,0.5,0.8,1,0.8,1.5s-0.1,1.1-0.5,1.5l-8.9,9.5l9.4,10.1
		c0.4,0.4,0.6,0.9,0.6,1.5c0,0.6-0.3,1.1-0.8,1.5c-0.4,0.4-1,0.6-1.7,0.6c0,0-0.1,0-0.1,0c-0.8,0-1.4-0.2-1.8-0.7l-10.1-10.9h3.1
		v-4.6h-2.5l8.9-9.9c0.4-0.5,1-0.7,1.8-0.8C380,141.6,380.1,141.5,380.2,141.5 M362.9,141.6c0.8,0,1.4,0.2,1.8,0.7
		c0.5,0.5,0.7,1.1,0.7,1.8v8.2h3.8l-2.4,2.7l1.8,2h-3.2v9.1c0,0.7-0.2,1.3-0.7,1.8c-0.5,0.5-1.1,0.7-1.8,0.7c-0.7,0-1.3-0.2-1.7-0.7
		c-0.4-0.5-0.6-1.1-0.6-1.8v-21.9c0-0.8,0.2-1.4,0.6-1.8C361.6,141.8,362.1,141.6,362.9,141.6 M380.2,141.1c-0.1,0-0.2,0-0.4,0
		c-0.9,0.1-1.6,0.4-2.1,0.9l-8.8,9.8h-3.2v-7.8c0-0.9-0.3-1.6-0.8-2.1c-0.6-0.5-1.3-0.8-2.1-0.8c-0.8,0-1.5,0.3-2,0.8
		c-0.5,0.5-0.7,1.2-0.7,2.1V166c0,0.8,0.3,1.5,0.7,2.1c0.5,0.6,1.2,0.8,2,0.8c0.9,0,1.6-0.3,2.1-0.8c0.6-0.6,0.8-1.3,0.8-2.1v-8.7
		h2.6l10,10.7c0.5,0.5,1.2,0.8,2.1,0.8l0.1,0c0.8,0,1.5-0.2,2-0.7c0.6-0.5,0.9-1.2,0.9-1.8c0-0.7-0.3-1.3-0.8-1.8l-9.2-9.8l8.6-9.3
		c0.5-0.5,0.7-1.2,0.6-1.9c-0.1-0.7-0.4-1.3-1-1.8C381.5,141.3,380.9,141.1,380.2,141.1L380.2,141.1z M369.3,152.7h2v3.8h-2.5
		l-1.5-1.6L369.3,152.7L369.3,152.7z"/>
</g>
<g>
	<path class="st5" d="M392.3,168.7c-0.8,0-1.4-0.3-1.9-0.8c-0.5-0.5-0.8-1.2-0.8-1.9v-21.9c0-0.8,0.3-1.5,0.8-2
		c0.5-0.5,1.2-0.7,1.9-0.7c0.8,0,1.5,0.3,2,0.7c0.5,0.5,0.7,1.2,0.7,2V166c0,0.8-0.3,1.4-0.7,1.9
		C393.7,168.4,393.1,168.7,392.3,168.7z"/>
	<path class="st5" d="M392.3,141.6c0.8,0,1.4,0.2,1.8,0.7c0.5,0.5,0.7,1.1,0.7,1.8V166c0,0.7-0.2,1.3-0.7,1.8
		c-0.5,0.5-1.1,0.7-1.8,0.7c-0.7,0-1.3-0.2-1.8-0.7c-0.5-0.5-0.7-1.1-0.7-1.8v-21.9c0-0.8,0.2-1.4,0.7-1.8
		C390.9,141.8,391.5,141.6,392.3,141.6 M392.3,141.2c-0.8,0-1.5,0.3-2.1,0.8c-0.6,0.5-0.8,1.2-0.8,2.1V166c0,0.8,0.3,1.5,0.8,2.1
		c0.6,0.6,1.3,0.8,2.1,0.8c0.9,0,1.6-0.3,2.1-0.8c0.5-0.6,0.8-1.3,0.8-2.1v-21.9c0-0.9-0.3-1.6-0.8-2.1
		C393.8,141.4,393.1,141.2,392.3,141.2L392.3,141.2z"/>
</g>
<g>
	<path class="st5" d="M425.9,168.6c-0.2,0-0.4,0-0.6-0.1c-0.6-0.2-1.1-0.6-1.4-1.3l-7.8-17.8l-8.1,17.8c-0.3,0.7-0.8,1.1-1.4,1.3
		c-0.2,0.1-0.5,0.1-0.7,0.1c-0.4,0-0.9-0.1-1.3-0.3c-0.7-0.3-1.1-0.7-1.4-1.3c-0.3-0.5-0.2-1.2,0.1-1.9l10.2-22
		c0.5-1.2,1.4-1.7,2.5-1.7c0.5,0,1,0.1,1.4,0.4c0.4,0.3,0.8,0.7,1,1.3l10.1,22c0.3,0.7,0.4,1.4,0.1,1.9c-0.2,0.6-0.7,1-1.3,1.3
		C426.8,168.5,426.4,168.6,425.9,168.6z"/>
	<path class="st5" d="M415.9,141.6c0.5,0,0.9,0.1,1.3,0.4c0.4,0.3,0.7,0.7,0.9,1.2l10.1,22c0.3,0.7,0.3,1.2,0.1,1.7
		c-0.2,0.5-0.6,0.9-1.2,1.2c-0.5,0.2-0.9,0.3-1.3,0.3c-0.2,0-0.4,0-0.6-0.1c-0.5-0.2-1-0.6-1.3-1.2l-8-18.2l1.3-2.8h-2.5l1.2,2.8
		l-8.3,18.2c-0.3,0.6-0.7,1-1.3,1.2c-0.2,0.1-0.4,0.1-0.6,0.1c-0.4,0-0.8-0.1-1.3-0.3c-0.6-0.3-1.1-0.7-1.3-1.2
		c-0.2-0.5-0.2-1.1,0.1-1.7l10.2-22C414.1,142.2,414.9,141.6,415.9,141.6 M415.9,141.2c-1.2,0-2.2,0.6-2.7,1.9L403,165
		c-0.4,0.8-0.4,1.5-0.1,2.1c0.3,0.6,0.8,1,1.5,1.4c0.5,0.2,1,0.4,1.4,0.4c0.3,0,0.5,0,0.8-0.1c0.7-0.2,1.2-0.7,1.5-1.4l7.9-17.4
		l7.6,17.4c0.4,0.8,1,1.3,1.6,1.5c0.2,0.1,0.4,0.1,0.7,0.1c0.5,0,0.9-0.1,1.5-0.4c0.6-0.3,1.1-0.8,1.4-1.4c0.3-0.6,0.2-1.3-0.1-2.1
		l-10.1-22c-0.3-0.6-0.6-1.1-1.1-1.4C417,141.4,416.5,141.2,415.9,141.2L415.9,141.2z M415.4,146.5h1.3l-0.6,1.4L415.4,146.5
		L415.4,146.5z"/>
</g>
<g>
	<path class="st5" d="M456.6,168.6c-0.2,0-0.4,0-0.6-0.1c-0.6-0.2-1.1-0.6-1.4-1.3l-7.8-17.8l-8.1,17.8c-0.3,0.7-0.8,1.1-1.4,1.3
		c-0.2,0.1-0.5,0.1-0.7,0.1c-0.4,0-0.9-0.1-1.3-0.3c-0.7-0.3-1.1-0.7-1.4-1.3c-0.3-0.5-0.2-1.2,0.1-1.9l10.2-22
		c0.5-1.2,1.4-1.7,2.5-1.7c0.5,0,1,0.1,1.4,0.4c0.4,0.3,0.8,0.7,1,1.3l10.1,22c0.3,0.7,0.4,1.4,0.1,1.9c-0.2,0.6-0.7,1-1.3,1.3
		C457.5,168.5,457,168.6,456.6,168.6z"/>
	<path class="st5" d="M446.6,141.6c0.5,0,0.9,0.1,1.3,0.4c0.4,0.3,0.7,0.7,0.9,1.2l10.1,22c0.3,0.7,0.3,1.2,0.1,1.7
		c-0.2,0.5-0.6,0.9-1.2,1.2c-0.5,0.2-0.9,0.3-1.3,0.3c-0.2,0-0.4,0-0.6-0.1c-0.5-0.2-1-0.6-1.3-1.2l-8-18.2l1.3-2.8h-2.5l1.2,2.8
		l-8.3,18.2c-0.3,0.6-0.7,1-1.3,1.2c-0.2,0.1-0.4,0.1-0.6,0.1c-0.4,0-0.8-0.1-1.3-0.3c-0.6-0.3-1.1-0.7-1.3-1.2
		c-0.2-0.5-0.2-1.1,0.1-1.7l10.2-22C444.7,142.2,445.5,141.6,446.6,141.6 M446.6,141.2c-1.3,0-2.2,0.6-2.7,1.9l-10.2,22
		c-0.4,0.8-0.4,1.5-0.1,2.1c0.3,0.6,0.8,1,1.5,1.4c0.5,0.2,1,0.4,1.4,0.4c0.3,0,0.5,0,0.8-0.1c0.7-0.2,1.2-0.7,1.5-1.4l7.9-17.4
		l7.6,17.4c0.4,0.8,1,1.3,1.6,1.5c0.2,0.1,0.4,0.1,0.7,0.1c0.5,0,0.9-0.1,1.5-0.4c0.6-0.3,1.1-0.8,1.4-1.4c0.3-0.6,0.2-1.3-0.1-2.1
		l-10.1-22c-0.3-0.6-0.6-1.1-1.1-1.4C447.7,141.4,447.1,141.2,446.6,141.2L446.6,141.2z M446.1,146.5h1.3l-0.6,1.4L446.1,146.5
		L446.1,146.5z"/>
</g>
<g>
	<path class="st5" d="M468.6,168.7c-0.9,0-1.6-0.3-2-0.7c-0.6-0.5-0.8-1.1-0.8-1.7c0-0.6,0.2-1.1,0.6-1.6l4.8-6.3
		c-0.4-0.1-0.7-0.3-1.1-0.5c-1.4-0.7-2.5-1.7-3.2-2.9c-0.8-1.2-1.2-2.7-1.2-4.3c0-1.8,0.4-3.4,1.3-4.8c0.9-1.4,2-2.5,3.5-3.3
		c1.5-0.8,3.2-1.2,5.1-1.2h8.5c0.8,0,1.5,0.3,2,0.7c0.5,0.5,0.7,1.2,0.7,2V166c0,0.8-0.3,1.4-0.8,1.9c-0.5,0.5-1.1,0.8-1.9,0.8
		c-0.7,0-1.4-0.3-1.9-0.8c-0.5-0.5-0.7-1.2-0.7-1.9v-6.3h-4.3l-6.4,7.9c-0.6,0.7-1.3,1.1-2.1,1.1L468.6,168.7z M475.6,146.4
		c-1.3,0-2.4,0.4-3.3,1.2c-0.9,0.8-1.4,1.8-1.4,3.1c0,1.3,0.5,2.4,1.4,3.2c0.9,0.8,2.1,1.2,3.3,1.2h5.9v-8.7H475.6z"/>
	<path class="st5" d="M484.1,141.6c0.8,0,1.4,0.2,1.8,0.7c0.5,0.5,0.7,1.1,0.7,1.8V166c0,0.7-0.3,1.3-0.7,1.8
		c-0.4,0.5-1,0.7-1.8,0.7c-0.7,0-1.3-0.2-1.7-0.7c-0.5-0.5-0.7-1.1-0.7-1.8v-6.5h-4.6l2-2.5h-6.5l-1,1.3c-0.5-0.1-0.9-0.3-1.3-0.5
		c-1.3-0.7-2.4-1.6-3.1-2.9c-0.8-1.2-1.1-2.6-1.1-4.2c0-1.7,0.4-3.3,1.3-4.7c0.8-1.4,2-2.5,3.4-3.3c1.5-0.8,3.1-1.2,5-1.2H484.1
		 M475.6,155.3h6.1v-9.1h-6.1c-1.3,0-2.5,0.4-3.4,1.3c-1,0.8-1.5,1.9-1.5,3.2c0,1.4,0.5,2.5,1.5,3.3
		C473.2,154.9,474.3,155.3,475.6,155.3 M471.5,158.3c1,0.3,2.1,0.5,3.3,0.5v0.6h2.3l-6.4,8c-0.5,0.7-1.2,1-2,1c0,0-0.1,0-0.1,0
		c-0.8,0-1.5-0.2-1.9-0.6c-0.5-0.5-0.8-1-0.7-1.5c0-0.6,0.2-1.1,0.6-1.5L471.5,158.3 M484.1,141.2h-8.5c-2,0-3.7,0.4-5.2,1.3
		c-1.5,0.8-2.7,2-3.6,3.4c-0.9,1.4-1.3,3.1-1.3,4.9c0,1.7,0.4,3.2,1.2,4.4c0.8,1.3,1.9,2.3,3.3,3c0.3,0.1,0.6,0.3,0.9,0.4l-4.6,6
		c-0.4,0.5-0.6,1.1-0.7,1.7c0,0.7,0.3,1.3,0.9,1.9c0.5,0.5,1.3,0.7,2.2,0.7c0,0,0.1,0,0.1,0c0.9,0,1.7-0.4,2.3-1.2l6.3-7.9h4v6.1
		c0,0.8,0.3,1.5,0.8,2.1c0.5,0.6,1.2,0.8,2,0.8c0.9,0,1.6-0.3,2.1-0.8c0.5-0.5,0.8-1.2,0.8-2l0-22c0-0.9-0.3-1.6-0.8-2.1
		C485.7,141.4,485,141.2,484.1,141.2L484.1,141.2z M475.6,154.9c-1.2,0-2.3-0.4-3.2-1.2c-0.9-0.8-1.3-1.8-1.3-3
		c0-1.2,0.4-2.1,1.3-2.9c0.9-0.8,2-1.2,3.2-1.2h5.7v8.3H475.6L475.6,154.9z M472.7,157.4h5.5l-1.3,1.6h-1.7v-0.2v-0.4h-0.4
		c-0.9,0-1.8-0.1-2.6-0.3L472.7,157.4L472.7,157.4z"/>
</g>
</svg>
