<svg width="39" height="39" viewBox="0 0 39 39" fill="none" xmlns="http://www.w3.org/2000/svg">
<path d="M36 36.1613C36 34.8161 35.0834 33.6464 33.7849 33.393C27.3688 32.1453 22.5377 26.3943 22.5377 19.493C22.5377 12.5918 27.3879 6.84081 33.7849 5.59313C35.0834 5.33969 36 4.16999 36 2.82484C36 1.0313 34.396 -0.294355 32.6774 0.0565548C23.7598 1.8306 17 9.86253 17 19.5125C17 29.1626 23.7598 37.175 32.6965 38.949C34.4151 39.2804 36 37.9548 36 36.1613Z" fill="url(#paint0_linear_235_1592)"/>
<path d="M36.1598 3C34.814 3 33.6437 3.91566 33.3902 5.21285C32.1419 11.6225 26.388 16.4488 19.4833 16.4488C12.5786 16.4488 6.84423 11.6225 5.59592 5.21285C5.34236 3.91566 4.17208 3 2.82625 3C1.03182 3 -0.294502 4.60241 0.0565831 6.31928C1.83151 15.247 9.84795 22 19.5028 22C29.1576 22 37.1741 15.247 38.949 6.31928C39.2806 4.60241 37.9543 3 36.1598 3Z" fill="url(#paint1_linear_235_1592)"/>
<path d="M2.82585 36C4.17148 36 5.3416 35.0843 5.59512 33.7871C6.84325 27.3775 12.5963 22.5512 19.5 22.5512C26.4037 22.5512 32.1568 27.3966 33.4049 33.7871C33.6584 35.0843 34.8285 36 36.1742 36C37.9683 36 39.2945 34.3976 38.9434 32.6807C37.1688 23.753 29.1535 17 19.5 17C9.84654 17 1.81175 23.7721 0.056575 32.6998C-0.29446 34.4167 1.03167 36 2.82585 36Z" fill="url(#paint2_linear_235_1592)"/>
<path d="M3 2.82585C3 4.17148 3.91566 5.3416 5.21285 5.59512C11.6225 6.84325 16.4488 12.5963 16.4488 19.5C16.4488 26.4037 11.6034 32.1568 5.21285 33.4049C3.91566 33.6584 3 34.8285 3 36.1742C3 37.9683 4.60241 39.2945 6.31928 38.9434C15.247 37.1688 22 29.1535 22 19.5C22 9.84654 15.247 1.81175 6.31928 0.056575C4.60241 -0.29446 3 1.03167 3 2.82585Z" fill="url(#paint3_linear_235_1592)"/>
<defs>
<linearGradient id="paint0_linear_235_1592" x1="26.504" y1="38.9951" x2="26.504" y2="0.0175637" gradientUnits="userSpaceOnUse">
<stop stop-color="#11B77B"/>
<stop offset="1" stop-color="#31D376"/>
</linearGradient>
<linearGradient id="paint1_linear_235_1592" x1="-0.00193106" y1="12.4934" x2="38.9951" y2="12.4934" gradientUnits="userSpaceOnUse">
<stop stop-color="#AEFFE8"/>
<stop offset="1" stop-color="#45EFC7"/>
</linearGradient>
<linearGradient id="paint2_linear_235_1592" x1="-0.00193079" y1="26.5135" x2="38.9895" y2="26.5135" gradientUnits="userSpaceOnUse">
<stop stop-color="#31D376"/>
<stop offset="1" stop-color="#11B77B"/>
</linearGradient>
<linearGradient id="paint3_linear_235_1592" x1="12.4934" y1="-0.00193079" x2="12.4934" y2="38.9895" gradientUnits="userSpaceOnUse">
<stop stop-color="#AEFFE8"/>
<stop offset="1" stop-color="#2BD8AA"/>
</linearGradient>
</defs>
</svg>
