<svg width="70" height="98" viewBox="0 0 70 98" fill="none" xmlns="http://www.w3.org/2000/svg">
<path d="M35 4C28.6371 4.0075 22.537 6.5347 18.0377 11.0273C13.5385 15.5198 11.0075 21.6109 11 27.9643C10.9924 33.1563 12.6909 38.2075 15.8349 42.3429C15.8349 42.3429 16.4895 43.2034 16.5964 43.3276L35 65L53.4123 43.3167C53.5083 43.2012 54.1651 42.3429 54.1651 42.3429L54.1673 42.3363C57.3097 38.2027 59.0074 33.1539 59 27.9643C58.9925 21.6109 56.4615 15.5198 51.9623 11.0273C47.463 6.5347 41.3629 4.0075 35 4ZM35 36.6786C33.2739 36.6786 31.5866 36.1675 30.1514 35.2099C28.7162 34.2524 27.5976 32.8914 26.9371 31.2991C26.2765 29.7068 26.1037 27.9546 26.4404 26.2642C26.7772 24.5738 27.6084 23.0211 28.8289 21.8024C30.0494 20.5836 31.6045 19.7537 33.2974 19.4174C34.9903 19.0812 36.7451 19.2538 38.3398 19.9133C39.9345 20.5729 41.2975 21.6898 42.2565 23.1229C43.2154 24.5559 43.7273 26.2408 43.7273 27.9643C43.7244 30.2746 42.804 32.4894 41.1679 34.123C39.5319 35.7567 37.3137 36.6757 35 36.6786Z" fill="#2ECD76"/>
<path d="M35 38C39.9706 38 44 33.9706 44 29C44 24.0294 39.9706 20 35 20C30.0294 20 26 24.0294 26 29C26 33.9706 30.0294 38 35 38Z" fill="#EBF0F3"/>
<circle cx="34.5" cy="76.5" r="7.5" fill="#114928"/>
</svg>
