<svg xmlns="http://www.w3.org/2000/svg">

  <symbol id="arrow" viewBox="0 0 20 21">
    <path d="M17.5569 7.90141C17.5575 8.06741 17.5209 8.23142 17.4497 8.3814C17.3786 8.53137 17.2747 8.6635 17.1458 8.76808L10.4792 14.1347C10.2804 14.2982 10.031 14.3875 9.77361 14.3875C9.51625 14.3875 9.26687 14.2982 9.06806 14.1347L2.40139 8.57919C2.17448 8.39059 2.03179 8.11958 2.0047 7.82577C1.97761 7.53197 2.06835 7.23943 2.25695 7.01253C2.44555 6.78562 2.71656 6.64292 3.01036 6.61584C3.30417 6.58875 3.59671 6.67948 3.82361 6.86808L9.77917 11.8347L15.7347 7.03475C15.8978 6.89888 16.0964 6.81257 16.307 6.78604C16.5176 6.7595 16.7314 6.79386 16.9231 6.88503C17.1148 6.9762 17.2764 7.12038 17.3887 7.3005C17.5011 7.48062 17.5594 7.68915 17.5569 7.90141Z"/>
  </symbol>

  <symbol id="arrowRight" viewBox="0 0 15 13">
    <path fill-rule="evenodd" clip-rule="evenodd" d="M0.456016 6.62861C0.456016 6.85783 0.547073 7.07767 0.709159 7.23975C0.871243 7.40183 1.09108 7.49289 1.3203 7.49289H11.3339L7.62267 11.2024C7.54232 11.2828 7.47857 11.3782 7.43508 11.4832C7.39159 11.5881 7.36921 11.7007 7.36921 11.8143C7.36921 11.928 7.39159 12.0405 7.43508 12.1455C7.47857 12.2505 7.54232 12.3459 7.62267 12.4262C7.70303 12.5066 7.79843 12.5703 7.90342 12.6138C8.00841 12.6573 8.12094 12.6797 8.23459 12.6797C8.34823 12.6797 8.46076 12.6573 8.56575 12.6138C8.67075 12.5703 8.76614 12.5066 8.8465 12.4262L14.0322 7.24052C14.1127 7.16024 14.1766 7.06486 14.2201 6.95986C14.2637 6.85486 14.2861 6.74229 14.2861 6.62861C14.2861 6.51492 14.2637 6.40236 14.2201 6.29735C14.1766 6.19235 14.1127 6.09698 14.0322 6.01669L8.8465 0.830978C8.68421 0.668688 8.4641 0.577515 8.23459 0.577515C8.00507 0.577515 7.78496 0.668688 7.62267 0.830978C7.46038 0.993268 7.36921 1.21338 7.36921 1.44289C7.36921 1.6724 7.46038 1.89252 7.62267 2.05481L11.3339 5.76432H1.3203C1.09108 5.76432 0.871243 5.85538 0.709159 6.01747C0.547073 6.17955 0.456016 6.39938 0.456016 6.62861Z"/>
  </symbol>

  <symbol id="heart" viewBox="0 0 30 26">
    <path d="M29.2742 5.32818C28.8087 4.28552 28.1375 3.34067 27.2983 2.54652C26.4583 1.75 25.4681 1.11702 24.3813 0.682001C23.2543 0.229118 22.0456 -0.0026936 20.8253 2.36135e-05C19.1133 2.36135e-05 17.443 0.453555 15.9914 1.31023C15.6442 1.51516 15.3143 1.74024 15.0017 1.98549C14.6892 1.74024 14.3593 1.51516 14.012 1.31023C12.5605 0.453555 10.8901 2.36135e-05 9.17813 2.36135e-05C7.94535 2.36135e-05 6.75077 0.228469 5.62217 0.682001C4.53177 1.11874 3.54902 1.74696 2.70517 2.54652C1.86479 3.33977 1.19346 4.28485 0.72925 5.32818C0.246556 6.4133 0 7.56561 0 8.75151C0 9.87022 0.236138 11.036 0.704942 12.2219C1.09735 13.2129 1.65991 14.2409 2.37874 15.279C3.51776 16.9218 5.08392 18.6351 7.02858 20.372C10.2512 23.2511 13.4425 25.2399 13.5779 25.3205L14.401 25.8312C14.7656 26.0563 15.2344 26.0563 15.599 25.8312L16.422 25.3205C16.5575 25.2366 19.7453 23.2511 22.9714 20.372C24.916 18.6351 26.4822 16.9218 27.6212 15.279C28.3401 14.2409 28.9061 13.2129 29.295 12.2219C29.7638 11.036 30 9.87022 30 8.75151C30.0034 7.56561 29.7569 6.4133 29.2742 5.32818V5.32818ZM15.0017 23.1738C15.0017 23.1738 2.63919 15.5108 2.63919 8.75151C2.63919 5.32818 5.56661 2.55324 9.17813 2.55324C11.7166 2.55324 13.9183 3.92391 15.0017 5.92617C16.0852 3.92391 18.2868 2.55324 20.8253 2.55324C24.4368 2.55324 27.3642 5.32818 27.3642 8.75151C27.3642 15.5108 15.0017 23.1738 15.0017 23.1738Z"/>
  </symbol>

  <symbol id="phone" viewBox="0 0 18 18">
    <path d="M11.4353 12.0825L12.6953 10.8225C12.865 10.6549 13.0797 10.5402 13.3134 10.4923C13.547 10.4443 13.7896 10.4653 14.0116 10.5525L15.5472 11.1656C15.7715 11.2567 15.9639 11.4121 16.1 11.6123C16.2361 11.8125 16.31 12.0486 16.3122 12.2906V15.1031C16.3109 15.2678 16.2763 15.4306 16.2104 15.5815C16.1446 15.7325 16.0488 15.8685 15.929 15.9815C15.8092 16.0945 15.6677 16.1821 15.5132 16.239C15.3586 16.2959 15.1942 16.3209 15.0297 16.3125C4.26905 15.6431 2.0978 6.53065 1.68718 3.04315C1.66812 2.87189 1.68553 2.69853 1.73828 2.53448C1.79103 2.37044 1.87791 2.21942 1.99322 2.09136C2.10852 1.96331 2.24963 1.86111 2.40727 1.79151C2.5649 1.7219 2.73549 1.68647 2.9078 1.68752H5.62468C5.86712 1.68824 6.10381 1.76147 6.30429 1.8978C6.50477 2.03413 6.65989 2.22732 6.74968 2.45252L7.3628 3.98815C7.45295 4.20925 7.47594 4.45201 7.42892 4.6861C7.38191 4.9202 7.26695 5.13525 7.09843 5.3044L5.83843 6.5644C5.83843 6.5644 6.56405 11.475 11.4353 12.0825Z" fill="currentColor"/>
  </symbol>

  <svg id="email" viewBox="0 0 19 18">
    <path d="M3.5 15C3.0875 15 2.7345 14.8533 2.441 14.5597C2.147 14.2657 2 13.9125 2 13.5V4.5C2 4.0875 2.147 3.7345 2.441 3.441C2.7345 3.147 3.0875 3 3.5 3H15.5C15.9125 3 16.2657 3.147 16.5597 3.441C16.8533 3.7345 17 4.0875 17 4.5V13.5C17 13.9125 16.8533 14.2657 16.5597 14.5597C16.2657 14.8533 15.9125 15 15.5 15H3.5ZM9.5 9.75L15.5 6V4.5L9.5 8.25L3.5 4.5V6L9.5 9.75Z" fill="currentColor"/>
  </svg>
</svg>
